<svg width="24" height="24" viewBox="0 0 24 24" fill="none" xmlns="http://www.w3.org/2000/svg">
    <path d="M17.2646 14.292C17.2646 14.988 17.1266 15.576 16.8506 16.056C16.5746 16.524 16.2086 16.902 15.7526 17.19C15.2966 17.478 14.7746 17.688 14.1866 17.82C13.6106 17.94 13.0166 18 12.4046 18H7.32861V5.25598H12.4046C12.8966 5.25598 13.4006 5.30998 13.9166 5.41798C14.4326 5.51398 14.9006 5.68798 15.3206 5.93998C15.7406 6.17998 16.0826 6.50998 16.3466 6.92998C16.6106 7.34998 16.7426 7.88398 16.7426 8.53198C16.7426 9.23998 16.5506 9.82798 16.1666 10.296C15.7826 10.752 15.2786 11.082 14.6546 11.286V11.322C15.0146 11.382 15.3506 11.496 15.6626 11.664C15.9866 11.82 16.2626 12.024 16.4906 12.276C16.7306 12.528 16.9166 12.822 17.0486 13.158C17.1926 13.494 17.2646 13.872 17.2646 14.292ZM13.7726 8.94598C13.7726 8.51398 13.6046 8.20198 13.2686 8.00998C12.9446 7.80598 12.4586 7.70398 11.8106 7.70398H10.2986V10.332H11.9546C12.5306 10.332 12.9746 10.218 13.2866 9.98998C13.6106 9.74998 13.7726 9.40198 13.7726 8.94598ZM14.1866 14.004C14.1866 13.476 13.9886 13.11 13.5926 12.906C13.1966 12.702 12.6686 12.6 12.0086 12.6H10.2986V15.516H12.0266C12.2666 15.516 12.5126 15.498 12.7646 15.462C13.0286 15.414 13.2626 15.336 13.4666 15.228C13.6826 15.12 13.8566 14.97 13.9886 14.778C14.1206 14.574 14.1866 14.316 14.1866 14.004Z" fill="#4D4B49"/>
</svg>
