<svg width="24" height="24" viewBox="0 0 24 24" fill="none" xmlns="http://www.w3.org/2000/svg">
<path fill-rule="evenodd" clip-rule="evenodd" d="M18.7858 20.3419C18.8969 18.3948 19 15.6142 19 12C19 8.8112 18.9197 6.52151 18.8256 4.93337C18.7652 3.91589 18.0577 3.20915 17.0608 3.14511C15.8037 3.06436 14.1327 3 12 3C9.86741 3 8.19648 3.06436 6.93939 3.1451C5.94243 3.20914 5.23482 3.91593 5.1745 4.9335C5.08035 6.52165 5.00008 8.81131 5.00006 12C5.00004 15.6142 5.10315 18.3948 5.21425 20.3419L10.27 16.7731C11.3071 16.041 12.6929 16.041 13.7301 16.7731L18.7858 20.3419ZM6.8112 1.14921C4.79677 1.2786 3.29746 2.8001 3.178 4.81514C3.08116 6.44881 3.00008 8.77846 3.00006 12C3.00003 17.0256 3.19733 20.4726 3.34405 22.3412C3.40316 23.0939 4.24529 23.4739 4.86216 23.0385L11.4233 18.4071C11.769 18.163 12.231 18.163 12.5767 18.4071L19.1378 23.0385C19.7547 23.4739 20.5969 23.0939 20.656 22.3412C20.8027 20.4726 21 17.0256 21 12C21 8.77836 20.9189 6.44867 20.8221 4.81499C20.7026 2.80002 19.2033 1.27861 17.189 1.14922C15.8867 1.06557 14.1728 1 12 1C9.82726 1 8.11349 1.06557 6.8112 1.14921Z" fill="#4D4B49"/>
</svg>
