<svg width="12" height="16" viewBox="0 0 12 16" fill="none" xmlns="http://www.w3.org/2000/svg">
<path d="M2.54076 0.766163C1.1978 0.852421 0.198264 1.86675 0.118628 3.21012C0.0540639 4.29923 1.38387e-05 5.85233 0 8.00002C-2.15815e-05 11.3504 0.131513 13.6484 0.229325 14.8941C0.26873 15.396 0.830151 15.6493 1.2414 15.359L5.61551 12.2714C5.84599 12.1087 6.15393 12.1087 6.38442 12.2714L10.7585 15.359C11.1698 15.6493 11.7312 15.396 11.7706 14.8941C11.8684 13.6484 12 11.3504 12 8.00002C12 5.85226 11.9459 4.29913 11.8813 3.21001C11.8017 1.8667 10.8022 0.852428 9.45927 0.766169C8.59106 0.710402 7.44851 0.666687 5.99996 0.666687C4.55147 0.666687 3.40895 0.710398 2.54076 0.766163Z" fill="#4D4B49"/>
</svg>
