<svg width="24" height="24" viewBox="0 0 24 24" fill="none" xmlns="http://www.w3.org/2000/svg">
    <path fill-rule="evenodd" clip-rule="evenodd" d="M6 4.5C6 3.67157 6.65866 3 7.47115 3H21.5288C22.3413 3 23 3.67157 23 4.5C23 5.32843 22.3413 6 21.5288 6H7.47115C6.65866 6 6 5.32843 6 4.5Z" fill="#4D4B49"/>
    <path fill-rule="evenodd" clip-rule="evenodd" d="M6 11.5C6 10.6716 6.65866 10 7.47115 10H21.5288C22.3413 10 23 10.6716 23 11.5C23 12.3284 22.3413 13 21.5288 13H7.47115C6.65866 13 6 12.3284 6 11.5Z" fill="#4D4B49"/>
    <path fill-rule="evenodd" clip-rule="evenodd" d="M6 18.5C6 17.6716 6.65866 17 7.47115 17H21.5288C22.3413 17 23 17.6716 23 18.5C23 19.3284 22.3413 20 21.5288 20H7.47115C6.65866 20 6 19.3284 6 18.5Z" fill="#4D4B49"/>
    <circle cx="2.5" cy="4.5" r="1.5" fill="#4D4B49"/>
    <circle cx="2.5" cy="11.5" r="1.5" fill="#4D4B49"/>
    <circle cx="2.5" cy="18.5" r="1.5" fill="#4D4B49"/>
</svg>
