<svg width="20" height="20" viewBox="0 0 20 20" fill="none" xmlns="http://www.w3.org/2000/svg">
    <mask id="mask0_281_5745" style="mask-type:alpha" maskUnits="userSpaceOnUse" x="0" y="0" width="20" height="20">
        <rect width="20" height="20" fill="#D9D9D9"/>
    </mask>
    <g mask="url(#mask0_281_5745)">
        <path d="M7.50004 16.6667C7.04171 16.6667 6.64935 16.5035 6.32296 16.1771C5.99657 15.8507 5.83337 15.4583 5.83337 15C5.83337 14.5417 5.99657 14.1493 6.32296 13.8229C6.64935 13.4965 7.04171 13.3333 7.50004 13.3333C7.95837 13.3333 8.35074 13.4965 8.67712 13.8229C9.00351 14.1493 9.16671 14.5417 9.16671 15C9.16671 15.4583 9.00351 15.8507 8.67712 16.1771C8.35074 16.5035 7.95837 16.6667 7.50004 16.6667ZM12.5 16.6667C12.0417 16.6667 11.6493 16.5035 11.323 16.1771C10.9966 15.8507 10.8334 15.4583 10.8334 15C10.8334 14.5417 10.9966 14.1493 11.323 13.8229C11.6493 13.4965 12.0417 13.3333 12.5 13.3333C12.9584 13.3333 13.3507 13.4965 13.6771 13.8229C14.0035 14.1493 14.1667 14.5417 14.1667 15C14.1667 15.4583 14.0035 15.8507 13.6771 16.1771C13.3507 16.5035 12.9584 16.6667 12.5 16.6667ZM7.50004 11.6667C7.04171 11.6667 6.64935 11.5035 6.32296 11.1771C5.99657 10.8507 5.83337 10.4583 5.83337 10C5.83337 9.54167 5.99657 9.14931 6.32296 8.82292C6.64935 8.49653 7.04171 8.33334 7.50004 8.33334C7.95837 8.33334 8.35074 8.49653 8.67712 8.82292C9.00351 9.14931 9.16671 9.54167 9.16671 10C9.16671 10.4583 9.00351 10.8507 8.67712 11.1771C8.35074 11.5035 7.95837 11.6667 7.50004 11.6667ZM12.5 11.6667C12.0417 11.6667 11.6493 11.5035 11.323 11.1771C10.9966 10.8507 10.8334 10.4583 10.8334 10C10.8334 9.54167 10.9966 9.14931 11.323 8.82292C11.6493 8.49653 12.0417 8.33334 12.5 8.33334C12.9584 8.33334 13.3507 8.49653 13.6771 8.82292C14.0035 9.14931 14.1667 9.54167 14.1667 10C14.1667 10.4583 14.0035 10.8507 13.6771 11.1771C13.3507 11.5035 12.9584 11.6667 12.5 11.6667ZM7.50004 6.66667C7.04171 6.66667 6.64935 6.50347 6.32296 6.17709C5.99657 5.8507 5.83337 5.45834 5.83337 5C5.83337 4.54167 5.99657 4.14931 6.32296 3.82292C6.64935 3.49653 7.04171 3.33334 7.50004 3.33334C7.95837 3.33334 8.35074 3.49653 8.67712 3.82292C9.00351 4.14931 9.16671 4.54167 9.16671 5C9.16671 5.45834 9.00351 5.8507 8.67712 6.17709C8.35074 6.50347 7.95837 6.66667 7.50004 6.66667ZM12.5 6.66667C12.0417 6.66667 11.6493 6.50347 11.323 6.17709C10.9966 5.8507 10.8334 5.45834 10.8334 5C10.8334 4.54167 10.9966 4.14931 11.323 3.82292C11.6493 3.49653 12.0417 3.33334 12.5 3.33334C12.9584 3.33334 13.3507 3.49653 13.6771 3.82292C14.0035 4.14931 14.1667 4.54167 14.1667 5C14.1667 5.45834 14.0035 5.8507 13.6771 6.17709C13.3507 6.50347 12.9584 6.66667 12.5 6.66667Z" fill="#7F7D7B"/>
    </g>
</svg>
