<svg width="24" height="24" viewBox="0 0 24 24" fill="none" xmlns="http://www.w3.org/2000/svg">
<path fill-rule="evenodd" clip-rule="evenodd" d="M20 5H4C3.44772 5 3 5.44772 3 6V18C3 18.5523 3.44772 19 4 19H20C20.5523 19 21 18.5523 21 18V6C21 5.44772 20.5523 5 20 5ZM4 3C2.34315 3 1 4.34315 1 6V18C1 19.6569 2.34315 21 4 21H20C21.6569 21 23 19.6569 23 18V6C23 4.34315 21.6569 3 20 3H4Z" fill="#4D4B49"/>
<path fill-rule="evenodd" clip-rule="evenodd" d="M5.23178 7.35984C5.58534 6.93556 6.21591 6.87824 6.64018 7.2318L11.3598 11.1648C11.7307 11.4739 12.2693 11.4739 12.6402 11.1648L17.3598 7.2318C17.7841 6.87824 18.4147 6.93556 18.7682 7.35984C19.1218 7.78412 19.0645 8.41468 18.6402 8.76825L13.9206 12.7013C12.808 13.6284 11.192 13.6284 10.0794 12.7013L5.35981 8.76825C4.93554 8.41468 4.87821 7.78412 5.23178 7.35984Z" fill="#4D4B49"/>
</svg>
