<svg width="24" height="24" viewBox="0 0 24 24" fill="none" xmlns="http://www.w3.org/2000/svg">
<path fill-rule="evenodd" clip-rule="evenodd" d="M6 4C4.89543 4 4 4.89543 4 6V18C4 19.1046 4.89543 20 6 20H18C19.1046 20 20 19.1046 20 18V13C20 12.4477 20.4477 12 21 12C21.5523 12 22 12.4477 22 13V18C22 20.2091 20.2091 22 18 22H6C3.79086 22 2 20.2091 2 18V6C2 3.79086 3.79086 2 6 2H11C11.5523 2 12 2.44772 12 3C12 3.55228 11.5523 4 11 4H6Z" fill="#4D4B49"/>
<path fill-rule="evenodd" clip-rule="evenodd" d="M21 8C20.4477 8 20 7.55229 20 7V5.41424L10.6898 14.7245L10.6896 14.7242C10.5101 14.8951 10.2673 15 10 15C9.44772 15 9 14.5523 9 14C9 13.7065 9.12647 13.4425 9.32789 13.2595L9.32715 13.2587L18.5858 4L17 4C16.4477 4 16 3.55228 16 3C16 2.44772 16.4477 2 17 2H21C21.5523 2 22 2.44772 22 3V7C22 7.55229 21.5523 8 21 8Z" fill="#4D4B49"/>
</svg>
