<svg width="24" height="24" viewBox="0 0 24 24" fill="none" xmlns="http://www.w3.org/2000/svg">
<path fill-rule="evenodd" clip-rule="evenodd" d="M19.614 2.21069C20.0499 2.54976 20.1285 3.17804 19.7894 3.61399L5.7894 21.614C5.45033 22.0499 4.82205 22.1285 4.38611 21.7894C3.95016 21.4503 3.87162 20.8221 4.21069 20.3861L18.2107 2.38611C18.5498 1.95016 19.178 1.87162 19.614 2.21069Z" fill="#4D4B49"/>
<path fill-rule="evenodd" clip-rule="evenodd" d="M15.3143 4.48132C14.2986 4.17817 13.1938 4 11.9999 4C6.97341 4 3.526 7.15826 1.65772 9.506C0.481768 10.9837 0.481768 13.0163 1.65772 14.494C2.47632 15.5227 3.59808 16.707 5.023 17.713L6.25214 16.1327C5.00097 15.2648 3.99044 14.2134 3.22268 13.2486C2.62678 12.4998 2.62678 11.5002 3.22268 10.7514C4.94074 8.59238 7.87444 6 11.9999 6C12.6916 6 13.3497 6.07286 13.9742 6.20432L15.3143 4.48132ZM12.5485 8.0373C12.3692 8.01271 12.1861 8 12 8C9.79086 8 8 9.79086 8 12C8 12.5334 8.10439 13.0423 8.29385 13.5076L12.5485 8.0373ZM8.83282 14.4435L13.5892 8.32813C14.2141 8.59896 14.7563 9.02463 15.1673 9.55674L10.411 15.672C9.78614 15.4012 9.24393 14.9756 8.83282 14.4435ZM7.10149 16.6695L5.863 18.2618C6.43049 18.6035 7.03919 18.9123 7.68908 19.1716L8.97937 17.5127C8.30928 17.2905 7.68327 17.0023 7.10149 16.6695ZM10.0261 17.7958L8.68594 19.5188C9.70155 19.8219 10.8062 20 11.9999 20C17.0265 20 20.4739 16.8417 22.3422 14.494C23.5181 13.0163 23.5181 10.9837 22.3422 9.506C21.5236 8.47739 20.402 7.2932 18.9772 6.2872L17.748 7.86753C18.9991 8.73537 20.0095 9.78663 20.7772 10.7514C21.3731 11.5002 21.3731 12.4998 20.7772 13.2486C19.0591 15.4076 16.1254 18 11.9999 18C11.3085 18 10.6505 17.9272 10.0261 17.7958ZM15.7063 10.4927L11.4518 15.9627C11.631 15.9873 11.814 16 12 16C14.2091 16 16 14.2091 16 12C16 11.4667 15.8957 10.9579 15.7063 10.4927ZM16.8987 7.3307C16.3169 6.9979 15.6909 6.70968 15.0209 6.48741L16.3111 4.82849C16.961 5.08784 17.5697 5.39671 18.1372 5.73836L16.8987 7.3307Z" fill="#4D4B49"/>
</svg>
