<svg width="32" height="32" viewBox="0 0 32 32" fill="none" xmlns="http://www.w3.org/2000/svg">
    <path fill-rule="evenodd" clip-rule="evenodd" d="M4 6.66671C4 3.72119 6.38781 1.33337 9.33333 1.33337L20.4575 1.33337C21.872 1.33337 23.2286 1.89528 24.2288 2.89547L26.4379 5.10461C27.4381 6.10481 28 7.46136 28 8.87585L28 25.3334C28 28.2789 25.6122 30.6667 22.6667 30.6667L9.33333 30.6667C6.38781 30.6667 4 28.2789 4 25.3334L4 6.66671ZM25.3333 10.6667L25.3333 25.3334C25.3333 26.8061 24.1394 28 22.6667 28L9.33333 28C7.86057 28 6.66667 26.8061 6.66667 25.3334L6.66667 6.66671C6.66667 5.19395 7.86057 4.00004 9.33333 4.00004L18.6667 4.00004V6.66671C18.6667 8.87585 20.4575 10.6667 22.6667 10.6667H25.3333ZM25.1854 8.00004C25.0545 7.6235 24.8395 7.27747 24.5523 6.99023L22.3431 4.78109C22.0559 4.49384 21.7099 4.2789 21.3333 4.14796V6.66671C21.3333 7.40309 21.9303 8.00004 22.6667 8.00004H25.1854Z" fill="#7F7D7B"/>
    <path d="M9.3335 23.0267L9.3335 13.5867H11.6268L11.6268 23.0267H9.3335Z" fill="#7F7D7B"/>
    <path d="M23.4183 18.2667C23.4183 19.0134 23.2894 19.6978 23.0316 20.32C22.7738 20.9334 22.4138 21.4623 21.9516 21.9067C21.4983 22.3423 20.9561 22.68 20.325 22.92C19.6938 23.16 19.0094 23.28 18.2716 23.28C17.5338 23.28 16.8494 23.16 16.2183 22.92C15.5961 22.68 15.0538 22.3423 14.5916 21.9067C14.1383 21.4623 13.7827 20.9334 13.525 20.32C13.2672 19.6978 13.1383 19.0134 13.1383 18.2667C13.1383 17.5112 13.2672 16.8312 13.525 16.2267C13.7827 15.6134 14.1383 15.0934 14.5916 14.6667C15.0538 14.24 15.5961 13.9112 16.2183 13.68C16.8494 13.4489 17.5338 13.3334 18.2716 13.3334C19.0094 13.3334 19.6938 13.4489 20.325 13.68C20.9561 13.9112 21.4983 14.24 21.9516 14.6667C22.4138 15.0934 22.7738 15.6134 23.0316 16.2267C23.2894 16.8312 23.4183 17.5112 23.4183 18.2667ZM20.9783 18.2667C20.9783 17.8578 20.9116 17.4756 20.7783 17.12C20.645 16.7645 20.4583 16.4623 20.2183 16.2134C19.9872 15.9556 19.7027 15.7556 19.365 15.6134C19.0361 15.4623 18.6716 15.3867 18.2716 15.3867C17.8716 15.3867 17.5072 15.4623 17.1783 15.6134C16.8494 15.7556 16.565 15.9556 16.325 16.2134C16.085 16.4623 15.8983 16.7645 15.765 17.12C15.6405 17.4756 15.5783 17.8578 15.5783 18.2667C15.5783 18.6934 15.645 19.0889 15.7783 19.4534C15.9116 19.8089 16.0938 20.1156 16.325 20.3734C16.565 20.6312 16.8494 20.8356 17.1783 20.9867C17.5072 21.1289 17.8716 21.2 18.2716 21.2C18.6716 21.2 19.0361 21.1289 19.365 20.9867C19.6938 20.8356 19.9783 20.6312 20.2183 20.3734C20.4583 20.1156 20.645 19.8089 20.7783 19.4534C20.9116 19.0889 20.9783 18.6934 20.9783 18.2667Z" fill="#7F7D7B"/>
</svg>