<svg width="24" height="24" viewBox="0 0 24 24" fill="none" xmlns="http://www.w3.org/2000/svg">
<path fill-rule="evenodd" clip-rule="evenodd" d="M2.29289 13.2929C2.68342 12.9024 3.31658 12.9024 3.70711 13.2929L7 16.5858C7.39052 16.9763 7.39052 17.6095 7 18C6.60948 18.3905 5.97631 18.3905 5.58579 18L2.29289 14.7071C1.90237 14.3166 1.90237 13.6834 2.29289 13.2929Z" fill="#4D4B49"/>
<path d="M21.7348 5.67829C22.1094 5.27246 22.084 4.63981 21.6782 4.2652C21.2724 3.8906 20.6397 3.9159 20.2651 4.32172L8.94342 16.5869C8.56882 16.9927 8.59413 17.6254 8.99995 18C9.40577 18.3746 10.0384 18.3493 10.413 17.9435L17.3158 10.4654C17.5085 10.2568 17.836 10.2502 18.0368 10.451L19.2929 11.7071C19.6834 12.0976 20.3166 12.0976 20.7071 11.7071C21.0976 11.3166 21.0976 10.6834 20.7071 10.2929L19.3662 8.95195C19.1764 8.76219 19.1703 8.45646 19.3523 8.25926L21.7348 5.67829Z" fill="#4D4B49"/>
<path fill-rule="evenodd" clip-rule="evenodd" d="M5.87865 12.8787L4.1213 11.1213C2.94972 9.94972 2.94972 8.05023 4.12129 6.87865L7.87866 3.12129C9.05023 1.94972 10.9497 1.94972 12.1213 3.1213L13.8787 4.87865C15.0502 6.05023 15.0502 7.94972 13.8787 9.1213L10.1213 12.8787C8.94972 14.0502 7.05023 14.0502 5.87865 12.8787ZM5.53551 9.70708L7.29287 11.4644C7.68339 11.855 8.31656 11.855 8.70708 11.4644L12.4644 7.70708C12.855 7.31656 12.855 6.68339 12.4644 6.29287L10.7071 4.53551C10.3166 4.14498 9.68339 4.14498 9.29287 4.53551L5.53551 8.29287C5.14498 8.68339 5.14498 9.31656 5.53551 9.70708Z" fill="#4D4B49"/>
<path fill-rule="evenodd" clip-rule="evenodd" d="M8 20C8.55228 20 9 19.5523 9 19C9 18.4477 8.55228 18 8 18C7.44772 18 7 18.4477 7 19C7 19.5523 7.44772 20 8 20ZM8 22C9.65685 22 11 20.6569 11 19C11 17.3431 9.65685 16 8 16C6.34315 16 5 17.3431 5 19C5 20.6569 6.34315 22 8 22Z" fill="#4D4B49"/>
</svg>
