<svg width="24" height="24" viewBox="0 0 24 24" fill="none" xmlns="http://www.w3.org/2000/svg">
<path fill-rule="evenodd" clip-rule="evenodd" d="M18 7H6C5.44772 7 5 7.44772 5 8V20C5 20.5523 5.44772 21 6 21H18C18.5523 21 19 20.5523 19 20V8C19 7.44772 18.5523 7 18 7ZM6 5C4.34315 5 3 6.34315 3 8V20C3 21.6569 4.34315 23 6 23H18C19.6569 23 21 21.6569 21 20V8C21 6.34315 19.6569 5 18 5H6Z" fill="#4D4B49"/>
<path d="M6 2C6 2.55228 6.44772 3 7 3H17C17.5523 3 18 2.55228 18 2C18 1.44772 17.5523 1 17 1H7C6.44772 1 6 1.44772 6 2Z" fill="#4D4B49"/>
<path d="M11.5547 11.0365L14.7519 13.1679C15.3457 13.5638 15.3457 14.4362 14.7519 14.832L11.5547 16.9635C10.8901 17.4066 10 16.9302 10 16.1315L10 11.8685C10 11.0698 10.8901 10.5934 11.5547 11.0365Z" fill="#4D4B49"/>
</svg>
