<svg width="24" height="24" viewBox="0 0 24 24" fill="none" xmlns="http://www.w3.org/2000/svg">
<path fill-rule="evenodd" clip-rule="evenodd" d="M2 3C2.55228 3 3 3.44772 3 4V18C3 18.5523 3.44772 19 4 19H22C22.5523 19 23 19.4477 23 20C23 20.5523 22.5523 21 22 21H4C2.34315 21 1 19.6569 1 18V4C1 3.44772 1.44772 3 2 3Z" fill="#4D4B49"/>
<path fill-rule="evenodd" clip-rule="evenodd" d="M5.50397 5.13174C5.02445 5.40575 4.85786 6.01661 5.13187 6.49613L8.31839 12.0725C9.02789 13.3142 10.5151 13.8824 11.8718 13.4302L14.9933 12.3897C15.3908 12.2572 15.8287 12.3865 16.0904 12.7137L19.2192 16.6247C19.5643 17.0559 20.1935 17.1259 20.6248 16.7809C21.0561 16.4358 21.126 15.8066 20.781 15.3753L17.6522 11.4643C16.867 10.4828 15.5533 10.0948 14.3609 10.4923L11.2394 11.5328C10.7871 11.6836 10.2914 11.4941 10.0549 11.0803L6.86835 5.50385C6.59434 5.02433 5.98349 4.85773 5.50397 5.13174Z" fill="#4D4B49"/>
</svg>
