<svg width="24" height="24" viewBox="0 0 24 24" fill="none" xmlns="http://www.w3.org/2000/svg">
    <path d="M8.00076 10.8755C7.99695 9.32138 8.52624 8.09281 9.58508 7.07226C10.8203 5.88187 12.0455 4.68157 13.2726 3.48349C14.054 2.72056 14.9808 2.21698 16.0771 2.06375C18.1031 1.78085 19.7595 2.44063 21.0051 4.02005C21.7367 4.94761 22.0525 6.02295 21.9929 7.18954C21.9286 8.45282 21.4331 9.54304 20.5213 10.4463C19.9267 11.0354 19.3248 11.6176 18.723 12.1995C18.4367 12.4765 18.095 12.5715 17.7087 12.4383C17.3349 12.3096 17.1204 12.0428 17.0746 11.6593C17.041 11.3766 17.1329 11.1259 17.338 10.9239C17.9283 10.3427 18.5222 9.7647 19.1167 9.18724C19.7926 8.53068 20.1167 7.73824 20.0888 6.80919C20.0463 5.39863 18.8879 4.11898 17.4578 3.90178C16.3527 3.73392 15.405 4.04112 14.6151 4.80802C13.3601 6.02667 12.1086 7.2488 10.8554 8.46944C9.42884 9.85917 9.64513 12.1247 11.3132 13.2332C11.558 13.3959 11.742 13.592 11.7995 13.8841C11.8722 14.2525 11.7213 14.6299 11.3966 14.833C11.0554 15.0464 10.6907 15.0611 10.3528 14.8434C8.85654 13.8791 8.0883 12.5102 8 10.875L8.00076 10.8755Z" fill="#7F7D7B"/>
    <path d="M15.9997 13.4889C15.9723 14.7541 15.4392 15.9402 14.4158 16.9264C13.1796 18.1175 11.9515 19.3167 10.7237 20.516C9.8686 21.351 8.84521 21.8583 7.64082 21.9721C5.9031 22.1364 4.43625 21.5746 3.267 20.3119C2.55343 19.5414 2.13822 18.6265 2.03079 17.5951C1.87321 16.0817 2.31947 14.7506 3.39479 13.6414C4.00857 13.0082 4.65264 12.4027 5.28729 11.7893C5.67348 11.416 6.26485 11.4095 6.6378 11.7653C7.02756 12.1369 7.03443 12.7027 6.63959 13.0949C6.01894 13.711 5.3685 14.2999 4.76949 14.9351C3.89936 15.8581 3.66973 16.9458 4.11498 18.1202C4.54546 19.2555 5.41865 19.9281 6.6457 20.1086C7.68257 20.2611 8.59496 19.9529 9.34137 19.2327C10.6066 18.0116 11.8606 16.7797 13.1205 15.5534C13.7575 14.9333 14.0976 14.1873 14.0854 13.3096C14.0703 12.2314 13.5938 11.3775 12.6844 10.7632C12.3894 10.5638 12.1931 10.3174 12.1832 9.96309C12.1733 9.59962 12.3357 9.31128 12.6602 9.13103C12.9937 8.94583 13.3374 8.95773 13.6605 9.16178C14.5927 9.75086 15.2638 10.5497 15.6645 11.5605C15.8928 12.1367 15.9997 12.7357 16 13.4894L15.9997 13.4889Z" fill="#7F7D7B"/>
</svg>
