<svg width="24" height="24" viewBox="0 0 24 24" fill="none" xmlns="http://www.w3.org/2000/svg">
<path fill-rule="evenodd" clip-rule="evenodd" d="M8.17227 3.60036C8.54092 3.59013 8.88528 3.78364 9.06825 4.10384L12.1862 13.0607C12.1902 13.0723 12.1951 13.0837 12.2022 13.0938C12.2723 13.1944 12.4166 13.2077 12.5041 13.1236C12.5169 13.1113 12.5257 13.0956 12.5327 13.0793L15.0758 7.20753C15.2535 6.98541 15.5174 6.84948 15.8014 6.83375C16.0854 6.81802 16.3627 6.92398 16.5638 7.12511L18.4302 11.2738C18.455 11.3291 18.4882 11.3816 18.5382 11.4159C18.6209 11.4728 18.7195 11.5038 18.8213 11.5038H22.2C22.7523 11.5038 23.2 11.9516 23.2 12.5038C23.2 13.0561 22.7523 13.5038 22.2 13.5038H18.2C17.9348 13.5038 17.6804 13.3985 17.4929 13.2109L16.1128 9.52795C16.1028 9.5012 16.088 9.47562 16.0639 9.4602C15.9873 9.41109 15.8854 9.42002 15.8185 9.48364C15.8054 9.49618 15.7964 9.51233 15.7893 9.52906L12.9809 16.1285C12.774 16.3871 12.4525 16.5266 12.1223 16.5008C11.7921 16.4751 11.4961 16.2875 11.3318 16L8.4506 7.06271C8.44636 7.04955 8.44102 7.03662 8.433 7.02535C8.35308 6.91302 8.18452 6.91524 8.10688 7.02704C8.0956 7.04328 8.09001 7.06261 8.08671 7.08211L7.09444 12.9511C6.92505 13.2898 6.57878 13.5038 6.20001 13.5038H2.20001C1.64773 13.5038 1.20001 13.0561 1.20001 12.5038C1.20001 11.9516 1.64773 11.5038 2.20001 11.5038H5.27296C5.4418 11.5038 5.59773 11.4188 5.68958 11.2803C5.71202 11.2465 5.72466 11.2074 5.73353 11.1678L7.30558 4.15277C7.47051 3.82291 7.80361 3.6106 8.17227 3.60036Z" fill="#4D4B49"/>
</svg>
