<svg width="24" height="24" viewBox="0 0 24 24" fill="none" xmlns="http://www.w3.org/2000/svg">
<path fill-rule="evenodd" clip-rule="evenodd" d="M12 22C17.5228 22 22 17.5228 22 12C22 6.47715 17.5228 2 12 2C6.47715 2 2 6.47715 2 12C2 17.5228 6.47715 22 12 22Z" fill="#4D4B49"/>
<path d="M16.414 13.668C16.414 14.228 16.3113 14.732 16.106 15.18C15.9007 15.628 15.6207 16.006 15.266 16.314C14.9113 16.622 14.496 16.8553 14.02 17.014C13.544 17.182 13.04 17.266 12.508 17.266C11.9667 17.266 11.458 17.182 10.982 17.014C10.5153 16.8553 10.1047 16.622 9.75 16.314C9.39533 16.006 9.11533 15.6327 8.91 15.194C8.70467 14.7553 8.602 14.2653 8.602 13.724C8.602 13.136 8.70467 12.604 8.91 12.128C9.11533 11.6427 9.38133 11.1527 9.708 10.658L12.102 7.088H14.944L12.508 10.476L12.466 10.546C12.5593 10.5087 12.6713 10.4807 12.802 10.462C12.9327 10.4433 13.054 10.434 13.166 10.434C13.5953 10.434 14.006 10.5133 14.398 10.672C14.7993 10.8213 15.1447 11.0407 15.434 11.33C15.7327 11.61 15.9707 11.9507 16.148 12.352C16.3253 12.744 16.414 13.1827 16.414 13.668ZM14.062 13.724C14.062 13.276 13.922 12.9073 13.642 12.618C13.362 12.3193 12.9887 12.17 12.522 12.17C12.0553 12.17 11.6773 12.3147 11.388 12.604C11.0987 12.8933 10.954 13.2713 10.954 13.738C10.954 14.1673 11.094 14.536 11.374 14.844C11.654 15.152 12.032 15.306 12.508 15.306C12.9747 15.306 13.348 15.1613 13.628 14.872C13.9173 14.5827 14.062 14.2 14.062 13.724Z" fill="white"/>
</svg>
