<svg width="24" height="24" viewBox="0 0 24 24" fill="none" xmlns="http://www.w3.org/2000/svg">
    <path fill-rule="evenodd" clip-rule="evenodd" d="M6 4.5C6 3.67157 6.65866 3 7.47115 3H21.5288C22.3413 3 23 3.67157 23 4.5C23 5.32843 22.3413 6 21.5288 6H7.47115C6.65866 6 6 5.32843 6 4.5Z" fill="#4D4B49"/>
    <path fill-rule="evenodd" clip-rule="evenodd" d="M6 11.5C6 10.6716 6.65866 10 7.47115 10H21.5288C22.3413 10 23 10.6716 23 11.5C23 12.3284 22.3413 13 21.5288 13H7.47115C6.65866 13 6 12.3284 6 11.5Z" fill="#4D4B49"/>
    <path fill-rule="evenodd" clip-rule="evenodd" d="M6 18.5C6 17.6716 6.65866 17 7.47115 17H21.5288C22.3413 17 23 17.6716 23 18.5C23 19.3284 22.3413 20 21.5288 20H7.47115C6.65866 20 6 19.3284 6 18.5Z" fill="#4D4B49"/>
    <path d="M2.533 7.99995V4.35995L1.609 5.07395L1 4.24095L2.631 3.04395H3.709V7.99995H2.533Z" fill="#4D4B49"/>
    <path d="M1.105 20V19.02L3.037 17.27C3.15833 17.1533 3.25633 17.0343 3.331 16.913C3.40567 16.7917 3.443 16.6563 3.443 16.507C3.443 16.3297 3.387 16.1873 3.275 16.08C3.163 15.968 3.01367 15.912 2.827 15.912C2.631 15.912 2.47 15.982 2.344 16.122C2.22267 16.2573 2.15033 16.437 2.127 16.661L1 16.507C1.028 16.255 1.09567 16.031 1.203 15.835C1.315 15.639 1.455 15.4733 1.623 15.338C1.791 15.198 1.98233 15.093 2.197 15.023C2.41633 14.9483 2.64733 14.911 2.89 14.911C3.11867 14.911 3.34033 14.9413 3.555 15.002C3.76967 15.0627 3.961 15.156 4.129 15.282C4.297 15.408 4.43 15.5667 4.528 15.758C4.63067 15.9493 4.682 16.1733 4.682 16.43C4.682 16.6073 4.65867 16.7683 4.612 16.913C4.56533 17.053 4.5 17.1837 4.416 17.305C4.33667 17.4263 4.24333 17.5407 4.136 17.648C4.03333 17.7507 3.926 17.8533 3.814 17.956L2.666 18.978H4.689V20H1.105Z" fill="#4D4B49"/>
</svg>
