<svg width="24" height="24" viewBox="0 0 24 24" fill="none" xmlns="http://www.w3.org/2000/svg">
<path d="M7.99963 22L19 22C20.6569 22 22 20.6569 22 19V15C22 13.3432 20.6566 12 18.9998 12L19.8784 11.1214C21.05 9.94978 21.05 8.05029 19.8784 6.87872L17.1211 4.12136C15.9495 2.94978 14.05 2.94978 12.8784 4.12135L12 4.99983C12 4.99977 12 4.99989 12 4.99983V7.82826L14.2927 5.53557C14.6832 5.14505 15.3163 5.14504 15.7069 5.53557L18.4642 8.29293C18.8547 8.68345 18.8547 9.31662 18.4642 9.70714L12 16.1714V18.9998L16.9998 14H19C19.5523 14 20 14.4478 20 15V19C20 19.5523 19.5523 20 19 20H11.8292C11.4174 21.1652 10.3062 22 8.99996 22L7.99963 22Z" fill="#4D4B49"/>
<path fill-rule="evenodd" clip-rule="evenodd" d="M9 4H5C4.44771 4 4 4.44772 4 5V19C4 19.5523 4.44772 20 5 20H9C9.55229 20 10 19.5523 10 19V5C10 4.44772 9.55228 4 9 4ZM5 2C3.34315 2 2 3.34315 2 5V19C2 20.6569 3.34315 22 5 22H9C10.6569 22 12 20.6569 12 19V5C12 3.34315 10.6569 2 9 2H5Z" fill="#4D4B49"/>
<path d="M8 17C8 17.5523 7.55228 18 7 18C6.44772 18 6 17.5523 6 17C6 16.4477 6.44772 16 7 16C7.55228 16 8 16.4477 8 17Z" fill="#4D4B49"/>
</svg>
