<svg width="24" height="24" viewBox="0 0 24 24" fill="none" xmlns="http://www.w3.org/2000/svg">
<path fill-rule="evenodd" clip-rule="evenodd" d="M9.99952 3.03941C9.67362 3.59008 9.60001 4.29324 9.60001 4.79999V16.6758C9.60001 17.0431 9.60952 17.5694 9.79036 17.9935C9.87342 18.1882 9.97824 18.324 10.1056 18.4141C10.2272 18.5001 10.4327 18.5896 10.8 18.5896C11.1673 18.5896 11.3728 18.5001 11.4944 18.4141C11.6218 18.324 11.7266 18.1882 11.8096 17.9935C11.9905 17.5694 12 17.0431 12 16.6758V7.53102C12 7.03397 12.4029 6.63102 12.9 6.63102C13.3971 6.63102 13.8 7.03397 13.8 7.53102V16.6758C13.8 16.6843 13.8 16.6931 13.8 16.7023C13.8003 17.0564 13.8008 17.9129 13.4654 18.6996C13.2859 19.1204 12.997 19.5561 12.5337 19.8837C12.0647 20.2154 11.4827 20.3896 10.8 20.3896C10.1173 20.3896 9.53527 20.2154 9.0663 19.8837C8.60303 19.5561 8.31409 19.1204 8.13465 18.6996C7.79917 17.9129 7.79975 17.0564 7.79999 16.7023C7.8 16.6931 7.80001 16.6843 7.80001 16.6758V4.79999C7.80001 4.18949 7.87639 3.09266 8.45049 2.12263C9.06997 1.07592 10.1969 0.299988 12 0.299988C13.6863 0.299988 14.8907 0.814943 15.6354 1.77244C16.3446 2.68419 16.5 3.83008 16.5 4.79999V16.8C16.5 18.3272 16.1497 19.8944 15.2277 21.1015C14.2769 22.3464 12.7993 23.1 10.8 23.1C9.19241 23.1 7.73896 22.5543 6.69218 21.4332C5.65021 20.3172 5.10001 18.7271 5.10001 16.8V7.53102C5.10001 7.03397 5.50295 6.63102 6.00001 6.63102C6.49706 6.63102 6.90001 7.03397 6.90001 7.53102V16.8C6.90001 18.3901 7.3498 19.5 8.00783 20.2047C8.66105 20.9043 9.6076 21.3 10.8 21.3C12.3008 21.3 13.2232 20.7605 13.7973 20.0089C14.4003 19.2193 14.7 18.0865 14.7 16.8V4.79999C14.7 3.96989 14.5555 3.31579 14.2146 2.87753C13.9093 2.48503 13.3137 2.09999 12 2.09999C10.8031 2.09999 10.28 2.56543 9.99952 3.03941Z" fill="#4D4B49"/>
</svg>
