<svg width="24" height="24" viewBox="0 0 24 24" fill="none" xmlns="http://www.w3.org/2000/svg">
<g clip-path="url(#clip0_2068_15033)">
<path fill-rule="evenodd" clip-rule="evenodd" d="M5.35119 6.26042L5.35126 6.2605L3.34352 8.26823C3.5094 8.35004 3.69376 8.42911 3.89175 8.49625C4.30563 8.63659 4.58475 8.72805 4.76412 8.78502C4.87276 8.81952 4.93403 8.83782 4.96271 8.84639L4.96272 8.84639L4.96273 8.8464C4.97703 8.85067 4.98322 8.85252 4.98314 8.85275C4.98308 8.85292 4.97934 8.85215 4.97276 8.8508L4.97251 8.85074C5.14096 8.88548 5.2926 8.96647 5.41115 9.08502L9.77595 13.4498C9.97592 13.6498 10.0646 13.939 10.0165 14.2347C9.91191 14.8783 9.85494 16.5091 10.4081 17.7201C10.6367 18.2206 10.8397 18.6007 11.0096 18.8834L14.4814 15.4116C14.4849 15.408 14.4884 15.4044 14.492 15.4009L18.902 10.9909C18.6166 10.8413 18.2338 10.6674 17.7298 10.479C17.1213 10.2515 16.3618 10.1829 15.6184 10.2089C14.8808 10.2346 14.2298 10.3507 13.8825 10.4404C13.5583 10.5242 13.2285 10.4408 13.0067 10.219L8.64186 5.85416C8.50895 5.72125 8.42375 5.54727 8.39729 5.35562C8.39645 5.35098 8.39417 5.33856 8.38959 5.31582C8.38082 5.27235 8.36655 5.2053 8.34488 5.10889C8.30164 4.91649 8.23116 4.61702 8.12129 4.17305C8.07507 3.98628 8.01737 3.81307 7.95517 3.65644L5.35137 6.26024C5.35131 6.2603 5.35125 6.26036 5.35119 6.26042ZM15.7976 16.7069L15.7977 16.7069L11.5178 20.9868C11.1665 21.3381 10.6341 21.404 10.2619 21.1422C10.0368 20.9839 9.79575 20.703 9.54919 20.3377C9.28771 19.9503 8.97788 19.4041 8.63419 18.6516C7.9944 17.2509 7.96096 15.5758 8.0476 14.5796L4.13626 10.6683C3.92599 10.6033 3.60137 10.497 3.12586 10.3358C2.16656 10.0105 1.43084 9.48653 1.14009 9.22189C0.953872 9.0524 0.85209 8.80765 0.858313 8.54432C0.864536 8.28099 0.978222 8.02192 1.17305 7.82709L4.03493 4.96521C4.03844 4.9616 4.04199 4.95801 4.04556 4.95444L7.55628 1.44372C7.75229 1.24771 8.01327 1.13388 8.2781 1.12889C8.54294 1.12389 8.78839 1.22816 8.95697 1.41729C9.23556 1.72985 9.745 2.50862 10.0032 3.55186C10.115 4.00362 10.1887 4.31648 10.2357 4.52561L10.2541 4.60829L14.0971 8.4512C14.551 8.36719 15.1178 8.29543 15.7252 8.27422C16.6 8.24368 17.6306 8.31514 18.5471 8.65775C19.3494 8.95769 19.9296 9.24449 20.3404 9.49777C20.7234 9.73391 21.0325 9.98499 21.2019 10.2461C21.4434 10.6182 21.3708 11.1337 21.0288 11.4757L17.2267 15.2778L21.5794 19.6304C21.9399 19.991 21.9124 20.6032 21.5177 20.9978C21.1231 21.3925 20.5109 21.4201 20.1503 21.0595L15.7977 16.7068C15.7976 16.7068 15.7976 16.7069 15.7976 16.7069Z" fill="#4D4B49"/>
</g>
<defs>
<clipPath id="clip0_2068_15033">
<rect width="24" height="24" fill="white"/>
</clipPath>
</defs>
</svg>
