<svg width="16" height="16" viewBox="0 0 16 16" fill="none" xmlns="http://www.w3.org/2000/svg">
    <path d="M3.99984 9.33335C3.99984 8.96516 3.70136 8.66669 3.33317 8.66669C2.96498 8.66669 2.6665 8.96516 2.6665 9.33335V11.3334C2.6665 12.4379 3.56193 13.3334 4.6665 13.3334H6.6665C7.03469 13.3334 7.33317 13.0349 7.33317 12.6667C7.33317 12.2985 7.03469 12 6.6665 12H4.6665C4.29831 12 3.99984 11.7015 3.99984 11.3334V9.33335Z" fill="#7F7D7B"/>
    <path d="M11.9998 6.66669C11.9998 7.03488 12.2983 7.33335 12.6665 7.33335C13.0347 7.33335 13.3332 7.03488 13.3332 6.66669V4.66669C13.3332 3.56212 12.4377 2.66669 11.3332 2.66669H9.33317C8.96498 2.66669 8.6665 2.96516 8.6665 3.33335C8.6665 3.70154 8.96498 4.00002 9.33317 4.00002H11.3332C11.7014 4.00002 11.9998 4.2985 11.9998 4.66669V6.66669Z" fill="#7F7D7B"/>
</svg>
