<svg width="24" height="24" viewBox="0 0 24 24" fill="none" xmlns="http://www.w3.org/2000/svg">
<path fill-rule="evenodd" clip-rule="evenodd" d="M10.4142 3.17157C11.1644 2.42143 12.1818 2 13.2426 2H19C20.6569 2 22 3.34315 22 5V10.7574C22 11.8182 21.5786 12.8356 20.8284 13.5858L13.1213 21.2929C11.9498 22.4645 10.0503 22.4645 8.87868 21.2929L2.70711 15.1213C1.53553 13.9497 1.53554 12.0503 2.70711 10.8787L10.4142 3.17157ZM13.2426 4C12.7122 4 12.2035 4.21071 11.8284 4.58579L4.12132 12.2929C3.7308 12.6834 3.7308 13.3166 4.12132 13.7071L10.2929 19.8787C10.6834 20.2692 11.3166 20.2692 11.7071 19.8787L19.4142 12.1716C19.7893 11.7965 20 11.2878 20 10.7574V5C20 4.44772 19.5523 4 19 4H13.2426Z" fill="#4D4B49"/>
<path d="M3.58578 9.99997L5 8.58575L15.4142 19L14 20.4142L3.58578 9.99997Z" fill="#4D4B49"/>
<path fill-rule="evenodd" clip-rule="evenodd" d="M15 10C15.5523 10 16 9.55228 16 9C16 8.44772 15.5523 8 15 8C14.4477 8 14 8.44772 14 9C14 9.55228 14.4477 10 15 10ZM15 12C16.6569 12 18 10.6569 18 9C18 7.34315 16.6569 6 15 6C13.3431 6 12 7.34315 12 9C12 10.6569 13.3431 12 15 12Z" fill="#4D4B49"/>
</svg>
