<svg width="24" height="24" viewBox="0 0 24 24" fill="none" xmlns="http://www.w3.org/2000/svg">
<path fill-rule="evenodd" clip-rule="evenodd" d="M12 20C16.4183 20 20 16.4183 20 12C20 7.58172 16.4183 4 12 4C7.58172 4 4 7.58172 4 12C4 16.4183 7.58172 20 12 20ZM12 22C17.5228 22 22 17.5228 22 12C22 6.47715 17.5228 2 12 2C6.47715 2 2 6.47715 2 12C2 17.5228 6.47715 22 12 22Z" fill="#4D4B49"/>
<path fill-rule="evenodd" clip-rule="evenodd" d="M15.7782 14.5355C16.1687 14.9261 16.1687 15.5592 15.7782 15.9498C13.8256 17.9024 10.6597 17.9024 8.70712 15.9498C8.31659 15.5592 8.31659 14.9261 8.70712 14.5355C9.09764 14.145 9.73081 14.145 10.1213 14.5355C11.2929 15.7071 13.1924 15.7071 14.364 14.5355C14.7545 14.145 15.3877 14.145 15.7782 14.5355Z" fill="#4D4B49"/>
<path d="M10.5 9.25C10.5 9.94036 9.94036 10.5 9.25 10.5C8.55964 10.5 8 9.94036 8 9.25C8 8.55964 8.55964 8 9.25 8C9.94036 8 10.5 8.55964 10.5 9.25Z" fill="#4D4B49"/>
<path d="M16.5 9.25C16.5 9.94036 15.9404 10.5 15.25 10.5C14.5596 10.5 14 9.94036 14 9.25C14 8.55964 14.5596 8 15.25 8C15.9404 8 16.5 8.55964 16.5 9.25Z" fill="#4D4B49"/>
</svg>
