<svg width="24" height="24" viewBox="0 0 24 24" fill="none" xmlns="http://www.w3.org/2000/svg">
<path d="M7.16178 19.9444C7.05756 19.9086 6.95993 19.8555 6.87521 19.7852L3.2588 16.5263C2.91373 16.2399 2.91373 15.7756 3.2588 15.4892C3.60386 15.2028 4.16331 15.2028 4.50837 15.4892L6.61642 17.4962L6.61642 8.73333C6.61642 8.32832 7.01201 8 7.5 8C7.98799 8 8.38358 8.32832 8.38358 8.73333L8.38358 17.4962L10.4916 15.4892C10.8367 15.2028 11.3961 15.2028 11.7412 15.4892C12.0863 15.7756 12.0863 16.2399 11.7412 16.5263L8.12479 19.7852C7.86444 20.0013 7.48205 20.0543 7.16178 19.9444Z" fill="#4D4B49"/>
<path d="M16.8382 4.05564C16.9424 4.09143 17.0401 4.14448 17.1248 4.21479L20.7412 7.47368C21.0863 7.76007 21.0863 8.22439 20.7412 8.51077C20.3961 8.79716 19.8367 8.79716 19.4916 8.51077L17.3836 6.50376L17.3836 15.2667C17.3836 15.6717 16.988 16 16.5 16C16.012 16 15.6164 15.6717 15.6164 15.2667L15.6164 6.50376L13.5084 8.51077C13.1633 8.79716 12.6039 8.79716 12.2588 8.51077C11.9137 8.22439 11.9137 7.76007 12.2588 7.47368L15.8752 4.21479C16.1356 3.99871 16.518 3.94567 16.8382 4.05564Z" fill="#4D4B49"/>
</svg>
