<svg width="24" height="24" viewBox="0 0 24 24" fill="none" xmlns="http://www.w3.org/2000/svg">
<path fill-rule="evenodd" clip-rule="evenodd" d="M9.52245 8.93367C9.42141 9.17564 9.19361 9.34086 8.93222 9.36173L4.18295 9.741C3.56153 9.79063 3.31008 10.5666 3.7843 10.9713L7.39873 14.0554C7.59895 14.2263 7.68641 14.495 7.62512 14.7509L6.52015 19.3652C6.37521 19.9705 7.03306 20.4498 7.56475 20.1263L11.6362 17.6491C11.8597 17.5131 12.1403 17.5131 12.3638 17.6491L16.4353 20.1263C16.9669 20.4498 17.6248 19.9705 17.4799 19.3652L16.3749 14.7509C16.3136 14.495 16.4011 14.2263 16.6013 14.0554L20.2157 10.9713C20.6899 10.5666 20.4385 9.79063 19.8171 9.741L15.0678 9.36173C14.8064 9.34086 14.5786 9.17564 14.4776 8.93367L12.646 4.54705C12.4064 3.97333 11.5936 3.97333 11.354 4.54705L9.52245 8.93367ZM16.0176 7.43121L14.4915 3.77644C13.5675 1.56352 10.4324 1.56354 9.50847 3.77644L7.98244 7.43121L4.02374 7.74735C1.62681 7.93877 0.656965 10.9319 2.48611 12.4927L5.49461 15.0598L4.57514 18.8995C4.0161 21.234 6.55353 23.0826 8.60431 21.8349L12 19.7688L15.3957 21.8349C17.4465 23.0826 19.9839 21.234 19.4249 18.8995L18.5054 15.0598L21.5139 12.4927C23.3431 10.9319 22.3732 7.93876 19.9763 7.74735L16.0176 7.43121Z" fill="#4D4B49"/>
</svg>
