<svg width="24" height="24" viewBox="0 0 24 24" fill="none" xmlns="http://www.w3.org/2000/svg">
    <path d="M15.26 7.61401C15.008 7.26601 14.666 6.98401 14.234 6.76801C13.802 6.54001 13.316 6.42601 12.776 6.42601C12.488 6.42601 12.194 6.46801 11.894 6.55201C11.606 6.62401 11.342 6.75001 11.102 6.93001C10.862 7.09801 10.664 7.31401 10.508 7.57801C10.364 7.83001 10.292 8.13601 10.292 8.49601C10.292 8.84401 10.358 9.13801 10.49 9.37801C10.634 9.60601 10.82 9.80401 11.048 9.97201C11.288 10.128 11.564 10.266 11.876 10.386C12.2 10.494 12.542 10.608 12.902 10.728C13.334 10.86 13.772 11.01 14.216 11.178C14.66 11.346 15.062 11.568 15.422 11.844C15.782 12.12 16.076 12.468 16.304 12.888C16.532 13.296 16.646 13.818 16.646 14.454C16.646 15.114 16.52 15.69 16.268 16.182C16.028 16.662 15.704 17.064 15.296 17.388C14.888 17.7 14.414 17.934 13.874 18.09C13.346 18.246 12.8 18.324 12.236 18.324C11.432 18.324 10.652 18.168 9.89598 17.856C9.15198 17.544 8.53398 17.082 8.04198 16.47L9.42798 15.3C9.72798 15.744 10.13 16.104 10.634 16.38C11.138 16.656 11.684 16.794 12.272 16.794C12.572 16.794 12.872 16.752 13.172 16.668C13.472 16.584 13.742 16.452 13.982 16.272C14.234 16.092 14.438 15.87 14.594 15.606C14.75 15.33 14.828 15 14.828 14.616C14.828 14.232 14.744 13.914 14.576 13.662C14.42 13.398 14.204 13.176 13.928 12.996C13.652 12.816 13.328 12.666 12.956 12.546C12.596 12.414 12.212 12.282 11.804 12.15C11.396 12.03 10.994 11.886 10.598 11.718C10.202 11.538 9.84798 11.316 9.53598 11.052C9.22398 10.776 8.97198 10.44 8.77998 10.044C8.58798 9.64801 8.49198 9.15601 8.49198 8.56801C8.49198 7.93201 8.61798 7.38601 8.86998 6.93001C9.13398 6.47401 9.46998 6.09601 9.87798 5.79601C10.298 5.49601 10.766 5.28001 11.282 5.14801C11.81 5.00401 12.338 4.93201 12.866 4.93201C13.61 4.93201 14.306 5.06401 14.954 5.32801C15.602 5.59201 16.124 5.94601 16.52 6.39001L15.26 7.61401Z" fill="#4D4B49"/>
    <path d="M7.37598 13.5H17.618V14.4H7.37598V13.5Z" fill="#4D4B49"/>
</svg>
