<svg width="24" height="24" viewBox="0 0 24 24" fill="none" xmlns="http://www.w3.org/2000/svg">
<path fill-rule="evenodd" clip-rule="evenodd" d="M12 20C16.4183 20 20 16.4183 20 12C20 7.58172 16.4183 4 12 4C7.58172 4 4 7.58172 4 12C4 16.4183 7.58172 20 12 20ZM12 22C17.5228 22 22 17.5228 22 12C22 6.47715 17.5228 2 12 2C6.47715 2 2 6.47715 2 12C2 17.5228 6.47715 22 12 22Z" fill="#4D4B49"/>
<path fill-rule="evenodd" clip-rule="evenodd" d="M16.6339 8.39052C17.122 8.91122 17.122 9.75544 16.6339 10.2761L11.6339 15.6095C11.1457 16.1302 10.3543 16.1302 9.86612 15.6095L7.36612 12.9428C6.87796 12.4221 6.87796 11.5779 7.36612 11.0572C7.85427 10.5365 8.64573 10.5365 9.13388 11.0572L10.75 12.781L14.8661 8.39052C15.3543 7.86983 16.1457 7.86983 16.6339 8.39052Z" fill="#4D4B49"/>
</svg>
