<svg width="24" height="24" viewBox="0 0 24 24" fill="none" xmlns="http://www.w3.org/2000/svg">
    <path fill-rule="evenodd" clip-rule="evenodd" d="M7 10.3333C4.42267 10.3333 2.33333 12.4227 2.33333 15V16.3333C2.33333 16.7015 2.03486 17 1.66667 17C1.29848 17 1 16.7015 1 16.3333V15C1 11.6863 3.68629 9 7 9C10.3137 9 13 11.6863 13 15V16.3333C13 16.7015 12.7015 17 12.3333 17C11.9651 17 11.6667 16.7015 11.6667 16.3333V15C11.6667 12.4227 9.57733 10.3333 7 10.3333Z" fill="#7F7D7B" stroke="#7F7D7B" stroke-width="0.5" stroke-linecap="round"/>
    <path fill-rule="evenodd" clip-rule="evenodd" d="M17 14.3333C14.4227 14.3333 12.3333 16.4227 12.3333 19V20.3333C12.3333 20.7015 12.0349 21 11.6667 21C11.2985 21 11 20.7015 11 20.3333V19C11 15.6863 13.6863 13 17 13C20.3137 13 23 15.6863 23 19V20.3333C23 20.7015 22.7015 21 22.3333 21C21.9651 21 21.6667 20.7015 21.6667 20.3333V19C21.6667 16.4227 19.5773 14.3333 17 14.3333Z" fill="#7F7D7B" stroke="#7F7D7B" stroke-width="0.5" stroke-linecap="round"/>
    <path fill-rule="evenodd" clip-rule="evenodd" d="M7 8.66667C8.47276 8.66667 9.66667 7.47276 9.66667 6C9.66667 4.52724 8.47276 3.33333 7 3.33333C5.52724 3.33333 4.33333 4.52724 4.33333 6C4.33333 7.47276 5.52724 8.66667 7 8.66667ZM7 10C9.20914 10 11 8.20914 11 6C11 3.79086 9.20914 2 7 2C4.79086 2 3 3.79086 3 6C3 8.20914 4.79086 10 7 10Z" fill="#7F7D7B" stroke="#7F7D7B" stroke-width="0.5"/>
    <path fill-rule="evenodd" clip-rule="evenodd" d="M17 12.6667C18.4728 12.6667 19.6667 11.4728 19.6667 10C19.6667 8.52724 18.4728 7.33333 17 7.33333C15.5272 7.33333 14.3333 8.52724 14.3333 10C14.3333 11.4728 15.5272 12.6667 17 12.6667ZM17 14C19.2091 14 21 12.2091 21 10C21 7.79086 19.2091 6 17 6C14.7909 6 13 7.79086 13 10C13 12.2091 14.7909 14 17 14Z" fill="#7F7D7B" stroke="#7F7D7B" stroke-width="0.5"/>
</svg>
