<svg width="24" height="24" viewBox="0 0 24 24" fill="none" xmlns="http://www.w3.org/2000/svg">
    <path d="M3.0527 17.7833H1L6.72889 5H8.40837L14.0813 17.7833H11.9913L10.6477 14.6417H4.37762L3.0527 17.7833ZM5.03075 13.0708H9.97588L7.51264 7.07639L5.03075 13.0708Z" fill="#4D4B49"/>
    <path d="M21.1899 12.2403C21.1899 11.6023 20.9908 11.1329 20.5927 10.8319C20.1946 10.519 19.6659 10.3625 19.0066 10.3625C18.509 10.3625 18.0362 10.4588 17.5883 10.6514C17.1529 10.8319 16.7859 11.0667 16.4874 11.3556L15.5543 10.2722C15.9897 9.875 16.5185 9.56204 17.1405 9.33333C17.775 9.10463 18.453 8.99028 19.1745 8.99028C19.809 8.99028 20.3564 9.08056 20.8167 9.26111C21.2894 9.42963 21.6751 9.66435 21.9737 9.96528C22.2722 10.2662 22.4962 10.6213 22.6454 11.0306C22.7947 11.4398 22.8694 11.8792 22.8694 12.3486V16.0861C22.8694 16.375 22.8756 16.6819 22.888 17.0069C22.9129 17.3199 22.9502 17.5787 23 17.7833H21.4138C21.3143 17.3741 21.2645 16.9648 21.2645 16.5556H21.2086C20.8851 17.013 20.4746 17.3681 19.9769 17.6208C19.4918 17.8736 18.9133 18 18.2415 18C17.8931 18 17.5261 17.9519 17.1405 17.8556C16.7673 17.7713 16.4252 17.6269 16.1141 17.4222C15.8031 17.2176 15.5419 16.9468 15.3304 16.6097C15.1313 16.2727 15.0318 15.8574 15.0318 15.3639C15.0318 14.7139 15.2122 14.2023 15.573 13.8292C15.9338 13.444 16.4065 13.1551 16.9912 12.9625C17.5759 12.7579 18.2353 12.6255 18.9693 12.5653C19.7032 12.5051 20.4435 12.475 21.1899 12.475V12.2403ZM20.7607 13.7028C20.3253 13.7028 19.8712 13.7208 19.3985 13.7569C18.9382 13.7931 18.5152 13.8653 18.1295 13.9736C17.7563 14.0819 17.4453 14.2444 17.1965 14.4611C16.9477 14.6778 16.8233 14.9667 16.8233 15.3278C16.8233 15.5806 16.873 15.7912 16.9725 15.9597C17.0845 16.1282 17.2276 16.2667 17.4017 16.375C17.5759 16.4833 17.7687 16.5616 17.9802 16.6097C18.1917 16.6458 18.4094 16.6639 18.6334 16.6639C19.4544 16.6639 20.0827 16.4292 20.5181 15.9597C20.966 15.4782 21.1899 14.8764 21.1899 14.1542V13.7028H20.7607Z" fill="#4D4B49"/>
</svg>
