<svg width="24" height="24" viewBox="0 0 24 24" fill="none" xmlns="http://www.w3.org/2000/svg">
<path fill-rule="evenodd" clip-rule="evenodd" d="M5.35125 6.26044L5.35117 6.26037L5.35136 6.26019L7.95516 3.65639C8.01736 3.81302 8.07506 3.98623 8.12128 4.173C8.23114 4.61697 8.30163 4.91644 8.34487 5.10883C8.36654 5.20525 8.38081 5.2723 8.38958 5.31577C8.39416 5.33851 8.39644 5.35093 8.39728 5.35557C8.42373 5.54721 8.50894 5.7212 8.64185 5.85411L11.0102 8.22242L12.4682 6.82226L10.2541 4.60824L10.2357 4.52556C10.1887 4.31643 10.115 4.00357 10.0032 3.55181C9.74499 2.50857 9.23555 1.7298 8.95695 1.41724C8.78838 1.22811 8.54293 1.12384 8.27809 1.12883C8.01326 1.13383 7.75228 1.24766 7.55627 1.44367L4.04555 4.95438L4.03492 4.96516L1.17304 7.82704C0.978211 8.02187 0.864524 8.28094 0.858302 8.54427C0.852079 8.8076 0.95386 9.05234 1.14008 9.22184C1.43082 9.48648 2.16655 10.0105 3.12585 10.3358C3.60136 10.497 3.92597 10.6033 4.13625 10.6682L6.25601 12.788L7.714 11.3878L5.41113 9.08497C5.29265 8.96648 5.14112 8.88552 4.97278 8.85075L4.97279 8.85075C4.97935 8.85211 4.98307 8.85287 4.98313 8.8527C4.98321 8.85246 4.97702 8.85061 4.96272 8.84634L4.9627 8.84634L4.96269 8.84634C4.93401 8.83777 4.87275 8.81947 4.76411 8.78497C4.58473 8.72799 4.30562 8.63654 3.89174 8.4962C3.69375 8.42906 3.50938 8.34999 3.34351 8.26818L5.35125 6.26044ZM4.97278 8.85075C4.97268 8.85073 4.97259 8.85071 4.97249 8.85069L4.97275 8.85074L4.97278 8.85075ZM10.2387 17.282L8.68892 18.7703C9.0108 19.4619 9.30165 19.9709 9.54918 20.3377C9.79573 20.7029 10.0367 20.9838 10.2619 21.1421C10.6341 21.4039 11.1665 21.338 11.5178 20.9868L15.7977 16.7069L15.7976 16.7068L15.7976 16.7068L20.1503 21.0594C20.5109 21.42 21.1231 21.3924 21.5177 20.9978C21.9123 20.6032 21.9399 19.9909 21.5794 19.6303L17.2267 15.2777L21.0288 11.4757C21.3708 11.1336 21.4434 10.6181 21.2019 10.2461C21.0325 9.98494 20.7234 9.73386 20.3404 9.49771C20.016 9.29769 19.5859 9.07676 19.0242 8.84497L17.4246 10.3811C17.5298 10.4098 17.6318 10.4423 17.7298 10.479C18.2338 10.6674 18.6166 10.8413 18.902 10.9908L14.492 15.4008L14.4814 15.4116L11.0096 18.8834C10.8397 18.6006 10.6366 18.2205 10.408 17.72C10.3436 17.579 10.2875 17.4322 10.2387 17.282Z" fill="#4D4B49"/>
<path fill-rule="evenodd" clip-rule="evenodd" d="M20.3024 3.4582C20.685 3.85654 20.6722 4.48958 20.2738 4.87212L3.82641 20.6671C3.42806 21.0497 2.79503 21.0369 2.41248 20.6385C2.02994 20.2402 2.04275 19.6072 2.44109 19.2246L18.8885 3.42959C19.2868 3.04704 19.9199 3.05985 20.3024 3.4582Z" fill="#4D4B49"/>
</svg>
